#!OML:ASF F:\VICON\USERDATA\INSTALL\rory3\rory3.ASF
:FULLY-SPECIFIED
:DEGREES
2082
root -0.991307 18.4416 -1.02883 -394.315 98.7095 -35.5662
lowerback 9.8013 7.28122 4.25074
upperback 2.8288 10.293 3.25397
thorax -2.34431 5.15845 -0.153624
lowerneck -10.5497 18.7139 3.02441
upperneck 24.4637 25.4697 3.2619
head 9.37735 12.6479 3.45589
rclavicle -8.52786e-014 3.18055e-014
rhumerus 327.149 -0.435783 -411.644
rradius 49.9865
rwrist -11.8074
rhand -24.6904 -0.315806
rfingers 7.12502
rthumb 1.81054 -30.2879
lclavicle -8.52786e-014 3.18055e-014
lhumerus -10.0686 30.7679 5.90837
lradius 16.559
lwrist -39.1475
lhand -36.836 42.5875
lfingers 7.12502
lthumb -9.91646 72.334
rfemur -7.36446 15.4783 7.37465
rtibia 30.7753
rfoot -25.1527 -27.1788
rtoes -6.42119
lfemur -11.1079 -8.78795 -17.9745
ltibia 26.6134
lfoot -13.7477 3.72012
ltoes -9.93671
2083
root -0.974177 18.4436 -1.07043 -394.323 99.029 -35.4884
lowerback 9.89955 7.43561 4.19059
upperback 2.79731 10.4918 3.14896
thorax -2.41611 5.25353 -0.264868
lowerneck -10.4583 18.5714 3.52842
upperneck 24.4189 25.2168 3.11149
head 9.43787 12.551 3.3281
rclavicle -6.38099e-014 -3.65764e-014
rhumerus 326.713 -1.16387 -411.383
rradius 50.223
rwrist -11.7769
rhand -24.6464 -0.28025
rfingers 7.12502
rthumb 1.85308 -30.2519
lclavicle -6.38099e-014 -3.65764e-014
lhumerus -9.63247 30.8417 4.73222
lradius 15.6614
lwrist -38.2548
lhand -36.9612 42.438
lfingers 7.12502
lthumb -10.0372 72.1786
rfemur -7.07752 15.4185 7.15965
rtibia 30.7675
rfoot -25.2394 -27.4233
rtoes -6.11359
lfemur -11.0176 -8.86452 -18.3438
ltibia 26.7042
lfoot -13.8231 3.55799
ltoes -9.32165
2084
root -0.960446 18.4404 -1.1141 -394.055 99.3672 -35.1957
lowerback 9.8801 7.49845 4.09695
upperback 2.85463 10.5649 3.18142
thorax -2.36668 5.2928 -0.183412
lowerneck -10.3933 18.5601 3.50811
upperneck 24.2691 25.2187 2.99725
head 9.38751 12.5433 3.27833
rclavicle 2.5842e-015 -6.36111e-015
rhumerus 326.647 -1.40784 -411.045
rradius 50.3998
rwrist -12.1464
rhand -25.2189 -0.459191
rfingers 7.12502
rthumb 1.30015 -30.435
lclavicle 2.5842e-015 -6.36111e-015
lhumerus -9.82286 30.565 3.59308
lradius 15.2782
lwrist -37.025
lhand -36.362 39.0633
lfingers 7.12502
lthumb -9.45912 68.831
rfemur -6.88626 15.2535 6.93158
rtibia 30.785
rfoot -25.2844 -27.614
rtoes -6.40638
lfemur -11.0306 -8.8665 -18.6997
ltibia 26.8108
lfoot -13.8132 3.45536
ltoes -9.937
2085
root -0.946838 18.4385 -1.15264 -393.016 99.6345 -34.0818
lowerback 9.93526 7.58116 4.12316
upperback 2.89334 10.6853 3.27189
thorax -2.36616 5.35445 -0.123333
lowerneck -10.2582 18.5006 3.43619
upperneck 24.0838 25.1677 2.87325
head 9.30695 12.5107 3.21406
rclavicle 3.53837e-014 -3.18055e-015
rhumerus 326.5 -1.88693 -410.643
rradius 50.5599
rwrist -12.3522
rhand -25.3965 -0.474402
rfingers 7.12502
rthumb 1.12858 -30.4512
lclavicle 3.53837e-014 -3.18055e-015
lhumerus -9.99036 30.842 2.62863
lradius 15.1854
lwrist -36.5019
lhand -37.1343 43.0929
lfingers 7.12502
lthumb -10.2042 72.8254
rfemur -6.64746 15.2205 6.93908
rtibia 30.829
rfoot -25.4331 -27.8648
rtoes -6.83026
lfemur -11.0106 -8.92125 -18.8338
ltibia 26.9183
lfoot -13.8442 3.23911
ltoes -10.1114
2086
root -0.931404 18.4404 -1.18679 -391.585 99.9033 -32.5706
lowerback 9.99302 7.67654 4.2223
upperback 2.92931 10.8306 3.36487
thorax -2.3567 5.42857 -0.101563
lowerneck -10.2907 18.4342 3.30087
upperneck 24.075 25.0655 3.00193
head 9.27226 12.4691 3.25388
rclavicle -5.74488e-014 -3.49861e-014
rhumerus 326.289 -2.46408 -410.245
rradius 50.7608
rwrist -12.4052
rhand -25.3148 -0.459304
rfingers 7.12502
rthumb 1.20756 -30.4356
lclavicle -5.74488e-014 -3.49861e-014
lhumerus -10.0428 31.1429 1.79301
lradius 15.2545
lwrist -36.0946
lhand -37.0602 42.3825
lfingers 7.12502
lthumb -10.1327 72.1185
rfemur -6.39131 15.0994 7.04986
rtibia 30.8773
rfoot -25.6007 -28.1611
rtoes -6.37586
lfemur -10.9956 -9.13049 -18.8604
ltibia 27.0521
lfoot -13.8901 2.98737
ltoes -9.78589
